<svg xmlns="http://www.w3.org/2000/svg" width="383" height="575" fill="none"><path stroke="#000" stroke-linecap="round" stroke-linejoin="round" stroke-width="2" d="M355.416 353.397c3.495 0 6.76.825 10.31.825 2.871 0 5.431-.44 7.377 2.062 3.64 4.68 2.992 15.019-.825 19.381-2.239 2.559-2.958 4.543-6.14 5.957-3.195 1.42-6.742 1.897-9.897 3.299-.552.245-1.245.485-2.026.71m2.484-118.009c6.706 0 24.695-3.115 25.11 8.065.166 4.495.877 10.957-2.154 14.662-4.277 5.228-10.098 7.501-15.991 10.447-2.684 1.342-5.029 2.344-7.664 2.816m-197.711 29.779c-6.536 4.534-12.534 9.655-19.532 13.509l-13.587 8.52m85.572-59.222c1.954-3.245 5.214-8.058 5.878-11.922.353-2.057 1.492-6.52 2.809-8.116 2.279-2.76-3.597-13.142-4.763-16.226-1.712-4.529-7-7.391-11.798-7.883m-83.44 24.572c-6.887-1.207-14.657-4.117-20.933-1.744l-10.971 4.149c-4.245 1.604-6.025 5.352-9.634 7.169m2.927 149.475c.743.241 1.55.3 2.382.214 4.23-4.002 8.098-8.633 11.78-12.378 4.198-4.27 10.585-11.164 11.553-17.251 2.339-14.713 1.415-37.089 13.535-47.637l5.103-3.2m-30.193 68.089c4.198-4.27 10.586-11.165 11.553-17.252 2.339-14.713 1.415-37.088 13.535-47.637l5.105-3.2m-47.282-69.223c3.61-1.817 5.39-5.564 9.634-7.169l10.972-4.149c6.275-2.372 14.045.537 20.932 1.744 1.721.302 3.459.443 5.209.448m0 0c16.019.04 33.028-11.402 46.792-16.606 8.31-3.143 23.227-9.256 31.439-8.414 4.798.492 10.086 3.355 11.798 7.883 1.166 3.084 6.118 11.804 4.764 16.226-1.355 4.422-2.456 6.059-2.81 8.116-.664 3.864-3.924 8.678-5.877 11.922-8.616 14.307-27.95 17.707-38.559 28.715-3.523 3.656-9.755 5.606-13.895 8.478-6.536 4.534-12.534 9.655-19.532 13.509l-13.585 8.52m-.535-78.349c-.316-29.531-.726-59.059-1.105-88.586m1.64 166.935c.007 3.824.011 7.649.011 11.474v68.671c0 12.727-.637 24.924 6.854 35.615 6.603 9.421 10.532 14.176 22.423 14.176 58.28 0 125.951-9.21 183.673-9.21 5.834-1.133 13.71-7.187 13.71-13.594V446.35c0-28.947 2.741-57.796 2.741-86.679 0-47.073 2.742-94.042 2.742-140.955v-25.322m-233.794-4.909c-.581-45.119-1.091-90.236-1.091-135.352V22.484c0-3.516 3.185-9.568 5.687-12.039 11.003-10.87 44.331-5.618 57.833-5.618 47.73 0 116.588-7.764 152.038 1.385 4.415 1.342 11.722 6.042 14.866 9.148 11.435 9.72 4.461 52.452 4.461 76.046v101.988m-233.794-4.909-19.572 15.356s-18.122 16.021-26.668 24.376c-5.94 5.81-13.191 13.305-17.32 20.436-7.848 13.557-21.182 26.159-26.208 41.238-23.952 57.675-67.2 314.54 21.1 280.875 21.873-9.878 27.718-16.015 47.01-44.583 8.826-14.5 21.809-25.482 32.532-38.351 2.065-2.477 4.741-4.001 7.596-5.225M357.825 226.89c2.264-1.505 4.42-3.118 6.297-4.996 4.171-4.171 6.965-11.682 6.965-17.778 0-7.234-1.802-10.722-9.073-10.722h-4.69"/></svg>