<svg xmlns="http://www.w3.org/2000/svg" width="477" height="712" fill="none"><path stroke="#000" stroke-linecap="round" stroke-linejoin="round" stroke-width="2" d="M122.407 469.397c-3.494 0-6.759.825-10.309.825-2.871 0-5.431-.44-7.377 2.062-3.64 4.68-2.992 15.019.825 19.381 2.239 2.559 2.958 4.543 6.14 5.957 3.195 1.42 6.742 1.897 9.897 3.299.552.245 1.245.485 2.026.71m-2.485-118.009c-6.705 0-24.695-3.115-25.109 8.065-.166 4.495-.877 10.957 2.154 14.662 4.277 5.228 10.098 7.501 15.991 10.447 2.684 1.342 5.029 2.344 7.664 2.816m197.711 29.779c6.536 4.534 12.534 9.655 19.532 13.509l13.587 8.52m-85.573-59.222c-1.953-3.245-5.213-8.058-5.877-11.922-.354-2.057-1.492-6.52-2.81-8.116-2.278-2.76 3.598-13.142 4.764-16.226 1.712-4.529 7-7.391 11.798-7.883m83.44 24.572c6.887-1.207 14.657-4.117 20.932-1.744l10.972 4.149c4.245 1.604 6.025 5.352 9.634 7.169m-2.927 149.475c-.743.241-1.551.3-2.382.214-4.23-4.002-8.099-8.633-11.78-12.378-4.198-4.27-10.586-11.164-11.553-17.251-2.339-14.713-1.415-37.089-13.535-47.637l-5.103-3.2m30.192 68.089c-4.198-4.27-10.585-11.165-11.553-17.252-2.338-14.713-1.415-37.088-13.534-47.637l-5.105-3.2m47.282-69.223c-3.609-1.817-5.389-5.564-9.634-7.169l-10.972-4.149c-6.275-2.372-14.045.537-20.933 1.744a30.591 30.591 0 0 1-5.209.448m0 0c-16.018.04-33.028-11.402-46.791-16.606-8.31-3.143-23.227-9.256-31.439-8.414-4.799.492-10.086 3.355-11.799 7.883-1.165 3.084-6.118 11.804-4.763 16.226 1.355 4.422 2.456 6.059 2.81 8.116.664 3.864 3.924 8.678 5.877 11.922 8.615 14.307 27.95 17.707 38.559 28.715 3.523 3.656 9.754 5.606 13.895 8.478 6.536 4.534 12.534 9.655 19.532 13.509l13.585 8.52m.534-78.349c.317-29.531.726-59.059 1.106-88.586m-1.64 166.935c-.007 3.824-.011 7.649-.011 11.474v68.671c0 12.727.637 24.924-6.855 35.615-6.602 9.421-10.531 14.176-22.422 14.176-58.281 0-125.951-9.21-183.674-9.21-5.834-1.133-13.709-7.187-13.709-13.594V562.35c0-28.947-2.742-57.796-2.742-86.679 0-47.073-2.742-94.042-2.742-140.955v-25.322m233.795-4.909c.58-45.119 1.091-90.236 1.091-135.352v-30.649c0-3.516-3.186-9.567-5.687-12.039-11.003-10.87-44.331-5.618-57.833-5.618-47.731 0-116.588-7.764-152.038 1.385-4.415 1.342-11.722 6.042-14.866 9.148-11.435 9.72-4.462 52.452-4.462 76.046v101.988m233.795-4.909 19.572 15.356s18.122 16.021 26.667 24.376c5.941 5.81 13.192 13.305 17.32 20.436 7.849 13.557 21.183 26.159 26.209 41.238 23.952 57.675 67.2 314.54-21.099 280.875-21.875-9.878-27.719-16.015-47.012-44.583-8.826-14.5-21.808-25.482-32.532-38.351-2.064-2.477-4.74-4.001-7.595-5.225M119.998 342.89c-2.263-1.505-4.419-3.118-6.296-4.996-4.171-4.171-6.965-11.682-6.965-17.778 0-7.234 1.802-10.722 9.072-10.722h4.69"/></svg>